<?xml version="1.0" encoding="utf-8"?>
<!-- Generator: Adobe Illustrator 16.0.0, SVG Export Plug-In . SVG Version: 6.00 Build 0)  -->
<!DOCTYPE svg PUBLIC "-//W3C//DTD SVG 1.1//EN" "http://www.w3.org/Graphics/SVG/1.1/DTD/svg11.dtd">
<svg version="1.1" id="Layer_1" xmlns="http://www.w3.org/2000/svg" xmlns:xlink="http://www.w3.org/1999/xlink" x="0px" y="0px"
	 width="119.305px" height="76.047px" viewBox="70.236 114.008 119.305 76.047"
	 enable-background="new 70.236 114.008 119.305 76.047" xml:space="preserve">
<path fill="#2875C8" d="M186.781,134.564c-3.469,0.879-13.703,3.057-15.971,1.873c0.002-0.692,0.002-1.078,0.002-1.078
	c0-0.041-0.011-0.077-0.012-0.117l0.01,0.006c-0.016-0.068,0.013-0.498,0.067-2.143c0.029-0.877,0.499-0.998,1.312-1.252
	c0.344-0.105,1.037-0.492,0.889-0.789c-0.278-0.551-5.439-0.74-7.229-0.733c-1.763,0.007-2.836,0.005-3.769,0l0.004,0.002
	c-0.115-0.002-0.232-0.007-0.346-0.007c0,0-5.784-0.7-7.63-1.184c-1.432-0.374-2.939-0.788-4.514-1.206l0.192-1.394
	c-2.068-0.285-4.324-1.089-4.637-1.645c-0.294-0.578-0.619-2.949-0.967-7.05c-0.098-1.152-0.117-1.352-0.172-1.563
	c-0.278-1.055-1.358-2.277-3.488-2.277c-0.021,0-0.04,0-0.06,0l-11.732,0.126v-0.001l-12.421,0.133
	c-2.168,0.024-3.24,1.282-3.501,2.355c-0.05,0.208-0.065,0.411-0.14,1.583c-0.26,4.095-0.533,6.466-0.81,7.041
	c-0.304,0.567-2.543,1.419-4.607,1.752l0.217,1.354c-1.019,0.274-2.01,0.542-2.966,0.792c-2.299,0.602-9.504,1.184-9.504,1.184
	c-0.091,0-0.173,0.007-0.263,0.009c-0.404-0.001-0.848-0.002-1.353-0.004c-1.788-0.007-6.949,0.183-7.227,0.733
	c-0.15,0.297,0.544,0.684,0.887,0.789c0.813,0.254,1.283,0.375,1.312,1.252c0.055,1.645,0.05,2.135,0.042,2.596l0.004-0.003
	c-0.002,0.083-0.008,0.164-0.008,0.247c0,0,0.007,0.242,0.021,0.684c-3.038,0.711-12.182-1.242-15.42-2.062
	c-1.625-0.411-2.761,0.395-2.761,1.183c0,1.522,2.662,2.269,5.521,2.858c4.011,0.83,10.932,1.328,12.769,1.449
	c0.296,9.184,1.046,31.055,1.66,37.4c0.504,5.205,1.186,8.855,5.407,10.146c10.647,3.252,49.388,3.252,67.034,0.098
	c5.068-0.906,5.748-4.914,6.408-9.268c1.351-8.912,1.676-29.138,1.754-38.347c0,0,8.578-0.519,13.23-1.479
	c2.859-0.59,5.521-1.336,5.521-2.858C189.541,134.96,188.404,134.154,186.781,134.564z M114.545,126.57
	c0.574-1.173,0.848-3.893,1.12-8.176c0.028-0.439,0.049-0.79,0.066-1.006c0.079-0.049,0.268-0.119,0.612-0.123l11.73-0.126v0.001
	l12.422-0.133c0.358-0.011,0.532,0.062,0.613,0.108c0.021,0.213,0.05,0.557,0.086,0.986c0.359,4.237,0.689,6.94,1.278,8.127
	c-4.009-0.819-8.39-1.425-13.167-1.425C123.888,124.805,118.978,125.582,114.545,126.57z"/>
</svg>
