<?xml version="1.0" encoding="utf-8"?>
<!-- Generator: Adobe Illustrator 16.0.0, SVG Export Plug-In . SVG Version: 6.00 Build 0)  -->
<!DOCTYPE svg PUBLIC "-//W3C//DTD SVG 1.1//EN" "http://www.w3.org/Graphics/SVG/1.1/DTD/svg11.dtd">
<svg version="1.1" xmlns="http://www.w3.org/2000/svg" xmlns:xlink="http://www.w3.org/1999/xlink" x="0px" y="0px" width="211px"
	 height="138px" viewBox="0 0 211 138" enable-background="new 0 0 211 138" xml:space="preserve">
<g id="Layer_1">
</g>
<g id="Layer_2">
	<path d="M201.667,39.5c-5.861,1.484-23.166,5.167-26.999,3.167c0.004-1.171,0.004-1.824,0.004-1.824
		c-0.001-0.411-0.043-0.806-0.123-1.186c-0.048-0.228-0.109-0.449-0.184-0.666c-1.596-4.649-9.139-6.659-15.034-6.659
		c0,0-9.779-1.184-12.899-2C135.14,27.38,121.25,23,104.5,23s-30.64,4.38-41.931,7.333c-3.886,1.017-16.068,2-16.068,2
		c-8.452,0-11.167,4.333-11.167,9.5c0,0,0.012,0.411,0.035,1.155C30.233,44.19,14.773,40.887,9.298,39.5
		c-2.746-0.695-4.667,0.667-4.667,2c0,2.573,4.5,3.834,9.334,4.833c6.78,1.402,18.481,2.245,21.587,2.451
		c0.501,15.524,1.769,52.502,2.807,63.23c0.852,8.8,2.004,14.972,9.141,17.152c18,5.5,83.498,5.498,113.331,0.165
		c8.568-1.532,9.719-8.308,10.834-15.667c2.283-15.066,2.833-49.262,2.965-64.831c0,0,14.503-0.874,22.37-2.501
		c4.834-1,9.334-2.26,9.334-4.833C206.334,40.167,204.413,38.805,201.667,39.5z"/>
	<path d="M174.667,40.655c-0.026-0.116,0.021-0.842,0.114-3.624c0.05-1.483,0.844-1.688,2.219-2.114
		c0.579-0.18,1.752-0.833,1.5-1.333c-0.47-0.933-9.196-1.253-12.219-1.242c-2.98,0.011-4.794,0.008-6.371,0"/>
	<path d="M35.339,41.421c0.013-0.78,0.022-1.608-0.071-4.39c-0.05-1.483-0.844-1.688-2.219-2.114c-0.579-0.18-1.752-0.833-1.5-1.333
		c0.47-0.933,9.196-1.253,12.219-1.242c2.98,0.011,4.794,0.008,6.371,0"/>
	<path fill="none" stroke="#000000" stroke-width="3" stroke-miterlimit="10" d="M138.779,28.451c0,0-8.049-1.114-9.71-4.063
		c-1.32-2.347-1.988-14.48-2.16-15.145c-0.177-0.665-1.023-1.99-3.521-1.963c-2.5,0.027-21,0.225-21,0.225l1.166-0.012
		c0,0-18.497,0.197-20.998,0.224c-2.5,0.026-3.319,1.369-3.479,2.038c-0.161,0.668-0.568,12.813-1.838,15.187
		c-1.597,2.986-9.622,4.271-9.622,4.271"/>
</g>
</svg>
