<?xml version="1.0" encoding="utf-8"?>
<!-- Generator: Adobe Illustrator 16.0.0, SVG Export Plug-In . SVG Version: 6.00 Build 0)  -->
<!DOCTYPE svg PUBLIC "-//W3C//DTD SVG 1.1//EN" "http://www.w3.org/Graphics/SVG/1.1/DTD/svg11.dtd">
<svg version="1.1" id="Layer_1" xmlns="http://www.w3.org/2000/svg" xmlns:xlink="http://www.w3.org/1999/xlink" x="0px" y="0px"
	 width="400px" height="120px" viewBox="-112.965 38.234 400 120" enable-background="new -112.965 38.234 400 120"
	 xml:space="preserve">
<path fill="#FFFFFF" d="M167.94,132.163c-0.268-2.65-2.359-4.583-5.738-5.302c-4.051-0.863-4.004-1.56-3.939-2.522
	c0.016-0.212,0.031-0.43,0.021-0.657c-0.037-0.911-0.213-1.986-0.389-2.983c0.031-0.204,0.07-0.408,0.117-0.62
	c0.137-0.615,0.277-1.251,0.178-2.14c-0.049-0.426-0.176-1.088-0.312-1.787c-0.006-0.028-0.012-0.054-0.016-0.082
	c0.012-0.058,0.025-0.116,0.039-0.172c0.174-0.768,0.322-1.431,0.307-1.896c-0.021-0.504-0.168-1.135-0.322-1.801
	c-0.021-0.088-0.041-0.178-0.062-0.266c0.002-0.002,0.002-0.002,0.002-0.004c0.16-0.619,0.312-1.203,0.307-1.753
	c-0.006-0.581-0.156-1.145-0.312-1.742c-0.01-0.034-0.018-0.066-0.027-0.098c0.031-0.156,0.061-0.308,0.092-0.456
	c0.129-0.653,0.252-1.267,0.264-1.742c0.016-0.63-0.186-1.425-0.387-2.205c0.131-0.775,0.238-1.578,0.207-2.256
	c-0.041-0.806-0.184-1.493-0.33-2.108c0.02-0.113,0.041-0.228,0.062-0.338c0.109-0.587,0.203-1.097,0.223-1.423
	c0.02-0.321-0.092-0.805-0.246-1.477c-0.043-0.184-0.088-0.38-0.131-0.584c0.006-0.027,0.012-0.056,0.018-0.086
	c0.166-0.809,0.324-1.572,0.266-2.169c-0.053-0.554-0.133-1.009-0.215-1.395c0.273-0.964,0.58-2.691-0.102-4.22
	c-0.006-0.012-0.012-0.022-0.016-0.034c0.141-0.819,0.25-1.733,0.152-2.617c1.121-0.097,1.961-0.526,1.961-1.63l0.717-24.922
	c0-0.757-0.646-1.427-1.461-1.849c0.559-0.492,0.916-1.211,0.916-2.014v-1.811c0-1.479-1.203-2.685-2.684-2.685
	c-1.482,0-2.686,1.205-2.686,2.685v1.811c0,0.803,0.357,1.522,0.916,2.014c-0.814,0.422-1.461,1.092-1.461,1.849l0.717,24.922
	c0,1,0.691,1.443,1.654,1.591c-0.049,0.635-0.053,1.717,0.32,2.75c-0.016,0.1-0.035,0.198-0.053,0.295
	c-0.115,0.626-0.215,1.166-0.215,1.624c0,0.661,0.123,1.15,0.268,1.716c0.039,0.156,0.08,0.319,0.121,0.495
	c-0.043,0.131-0.086,0.257-0.133,0.375c-0.35,0.894-0.164,2.184,0.072,3.309c-0.15,0.741-0.285,1.49-0.244,2.134
	c0.029,0.478,0.154,0.979,0.285,1.511c0.018,0.064,0.035,0.132,0.051,0.2c-0.137,0.753-0.262,1.543-0.268,2.178
	c-0.008,0.642,0.191,1.43,0.391,2.198c-0.029,0.164-0.057,0.326-0.086,0.482c-0.117,0.661-0.221,1.232-0.221,1.614
	c0,0.888,0.166,1.633,0.338,2.296c-0.115,0.61-0.211,1.243-0.221,1.821c-0.008,0.505,0.107,1.115,0.248,1.732
	c-0.172,0.667-0.328,1.351-0.289,2.04c0.023,0.476,0.174,1.281,0.332,2.095c-0.152,0.689-0.301,1.425-0.32,2.052
	c-0.016,0.494,0.135,1.34,0.311,2.318c0.016,0.09,0.033,0.182,0.049,0.274c-0.137,0.919-0.143,1.771-0.15,2.657l-0.002,0.354
	c-0.004,0.213,0.016,0.421,0.037,0.621c0.088,0.894,0.154,1.539-3.896,2.402c-3.377,0.721-5.469,2.651-5.738,5.302
	c-0.389,3.797-0.496,6.106-0.441,9.522c0.01,0.55,0.029,1.828,0.988,2.038c1.047,0.228,1.521-0.875,1.896-1.763
	c0.234-0.554,0.498-1.257,0.805-1.195c0.094,0.017,0.258,0.059,0.307,0.145c0.117,0.214-0.129,0.819-0.275,1.179
	c-0.053,0.13-0.102,0.252-0.143,0.362c-0.24,0.659-0.459,1.578-0.129,2.206c0.156,0.296,0.416,0.499,0.754,0.585
	c1.225,0.318,2.006-1.227,2.633-2.472c0.096-0.189,0.186-0.37,0.271-0.529l0.121-0.232c0.516-0.983,0.879-1.484,1.312-1.305
	c0.518,0.21,0.648,0.584,0.061,2.246c-0.338,0.949-0.598,1.925-0.215,2.61c0.195,0.35,0.529,0.577,0.996,0.675
	c0.127,0.028,0.248,0.042,0.361,0.042c1.178,0,1.682-1.389,2.355-3.245c0.074-0.204,0.146-0.441,0.225-0.693
	c0.229-0.758,0.545-1.793,1.031-2.038c0.092-0.046,0.238-0.099,0.502-0.002c0.629,0.222,0.611,0.633,0.33,1.528l-0.041,0.134
	c-0.316,1.027-0.848,2.748,0.758,3.275c1.025,0.34,2.004-0.705,2.848-3.012l0.066-0.18c0.145-0.405,0.346-0.961,0.561-1.059
	c0.018-0.009,0.072-0.034,0.217,0.023c0.131,0.052,0.004,0.791-0.043,1.071c-0.133,0.777-0.316,1.843,0.594,2.162
	c0.367,0.128,0.752,0.084,1.088-0.128c0.598-0.376,1.01-1.251,1.133-2.402C168.483,138.476,168.36,136.26,167.94,132.163z
	 M155.491,54.813v-1.811c0-0.887,0.721-1.607,1.607-1.607c0.885,0,1.605,0.72,1.605,1.607v1.811c0,0.769-0.543,1.413-1.266,1.568
	c-0.115-0.011-0.23-0.021-0.34-0.021c-0.111,0-0.227,0.009-0.34,0.021C156.034,56.226,155.491,55.582,155.491,54.813z
	 M167.251,141.489c-0.107,1.018-0.453,1.571-0.715,1.734c-0.104,0.064-0.197,0.078-0.305,0.04c-0.189-0.065-0.076-0.723-0.002-1.157
	c0.131-0.775,0.297-1.738-0.514-2.063c-0.33-0.133-0.641-0.135-0.924-0.009c-0.566,0.254-0.807,0.928-1.041,1.579l-0.064,0.176
	c-0.65,1.772-1.359,2.572-1.715,2.462c-0.584-0.191-0.625-0.693-0.176-2.15l0.039-0.128c0.199-0.629,0.66-2.104-0.893-2.653
	c-0.436-0.156-0.844-0.138-1.211,0.048c-0.832,0.42-1.197,1.618-1.49,2.582c-0.07,0.237-0.139,0.457-0.207,0.649
	c-0.779,2.146-1.092,2.756-1.68,2.626c-0.268-0.056-0.354-0.16-0.393-0.234c-0.236-0.419,0.15-1.507,0.277-1.864
	c0.389-1.097,0.977-2.758-0.572-3.387c-0.191-0.078-0.371-0.112-0.541-0.112c-0.951,0-1.541,1.123-1.916,1.839l-0.117,0.22
	c-0.09,0.168-0.184,0.355-0.281,0.554c-0.402,0.799-1.078,2.151-1.598,2c-0.113-0.028-0.152-0.078-0.18-0.13
	c-0.131-0.25-0.062-0.813,0.178-1.473c0.037-0.103,0.084-0.216,0.131-0.332c0.248-0.607,0.557-1.367,0.229-1.958
	c-0.174-0.318-0.49-0.518-0.939-0.598c-0.982-0.18-1.436,0.881-1.797,1.734c-0.312,0.735-0.596,1.297-0.871,1.229
	c-0.096-0.021-0.26-0.202-0.273-1.182c-0.057-3.359,0.051-5.644,0.436-9.404c0.227-2.23,2.059-3.873,5.027-4.507
	c2.814-0.6,3.967-1.197,4.402-1.916c0.408,0.785,1.543,1.421,4.457,2.042c2.969,0.632,4.801,2.276,5.029,4.509
	C167.438,136.14,167.589,138.318,167.251,141.489z"/>
<g>
	<path fill="#FFFFFF" d="M73.574,61.888c-1.799-0.427-34.355,0.36-34.355,0.36c-19.581,0-24.183,4.643-24.746,5.28
		c-0.9,1.022-0.918,1.241,0.599,0.967c4.027-0.726,19.343-0.066,22.346,0.475c1.234,0.222,1.285,0.492,1.742,0.48
		c0.19-0.005,0.54-0.66,0.54-0.66s-0.172,0.279,0.479-0.895c0.902-1.629,1.807-1.619,4.025-1.508
		c2.285,0.114,4.866,0.781,9.309,1.268c2.987,0.326,10.333,0.053,12.493-0.121c2.091-0.168,4.363-0.201,5.646,0.361
		c1.083,0.473,0.681,1.111,0.961,1.441c0.285,0.332,0.882,0.163,1.683-0.48c1.203-0.968,1.684-1.869,1.924-3.49
		C76.484,63.578,75.594,62.367,73.574,61.888z"/>
	<g>
		<path fill="#FFFFFF" d="M40.145,125.991c0.364-0.393,0.567-0.835,0.567-1.328c0-0.7-0.368-1.27-1.048-1.723
			c0.406-0.754,0.633-1.588,0.633-2.465c0-1.563-0.851-2.863-1.904-4.078c-1.182-1.36-0.928-1.908-0.839-2.549
			c0.063-0.439,0.322-0.902,0.529-1.214c0.2-0.077,0.29-0.159,0.403-0.233c0.151-0.101,0.29-0.274,0.29-0.479
			c0-0.166-0.104-0.271-0.27-0.311c0.536-0.437,0.833-0.941,0.833-1.479c0-0.506-0.265-0.983-0.743-1.401
			c0.029-0.025,0.06-0.051,0.089-0.075c0.16-0.124,0.309-0.347,0.309-0.603c0-0.205-0.105-0.344-0.273-0.394
			c1.132-1.158,1.816-2.646,1.816-4.271c0-2.912-2.192-5.388-5.242-6.297c-0.117-0.073-0.412-0.161-0.97-0.272
			c-0.749-0.15-0.618-0.819-0.45-1.252c0.364-0.245,0.526-0.604,0.52-1.002c-0.009-0.719-0.554-1.291-1.855-1.273
			c-1.3,0.02-1.828,0.609-1.819,1.33c0.006,0.383,0.164,0.725,0.508,0.956c0.198,0.438,0.377,1.134-0.369,1.301
			c-0.565,0.125-0.865,0.224-0.984,0.297c-2.914,0.97-4.98,3.383-4.98,6.213c0,1.614,0.675,3.096,1.794,4.25
			c-0.017,0-0.035,0-0.051,0c-0.252,0-0.418,0.153-0.418,0.414c0,0.256,0.148,0.479,0.307,0.603c0.027,0.02,0.052,0.041,0.077,0.062
			c-0.487,0.421-0.757,0.903-0.757,1.414c0,0.587,0.357,1.136,0.984,1.599c-0.041,0.053-0.069,0.113-0.069,0.191
			c0,0.203,0.138,0.378,0.288,0.479c0.099,0.062,0.177,0.132,0.324,0.199c0.21,0.312,0.485,0.791,0.551,1.248
			c0.093,0.653,0.341,1.194-0.896,2.637c-1.015,1.184-1.813,2.468-1.813,3.99c0,0.873,0.224,1.698,0.624,2.447
			c-0.714,0.491-1.085,1.117-1.085,1.876c0,0.45,0.167,0.853,0.467,1.206c-1.075,0.484-0.821,1.928-0.821,3.63
			c-0.009,1.091-0.026,2.653-0.026,2.72c0,1.588,3.334,2.354,8.501,2.354c5.165,0,8.465-0.766,8.465-2.354c0-0.26,0-1.986,0-2.72
			C41.34,127.912,41.354,126.457,40.145,125.991z"/>
		<path fill="#FFFFFF" d="M64.545,125.991c0.366-0.393,0.568-0.835,0.568-1.328c0-0.7-0.37-1.27-1.05-1.723
			c0.408-0.754,0.635-1.588,0.635-2.465c0-1.563-0.853-2.863-1.906-4.078c-1.181-1.36-0.927-1.908-0.836-2.549
			c0.063-0.439,0.32-0.902,0.529-1.214c0.2-0.077,0.288-0.159,0.403-0.233c0.15-0.101,0.29-0.274,0.29-0.479
			c0-0.166-0.104-0.271-0.271-0.311c0.535-0.437,0.836-0.941,0.836-1.479c0-0.506-0.269-0.983-0.746-1.401
			c0.029-0.025,0.06-0.051,0.09-0.075c0.159-0.124,0.309-0.347,0.309-0.603c0-0.205-0.105-0.344-0.274-0.394
			c1.133-1.158,1.814-2.646,1.814-4.271c0-2.912-2.189-5.388-5.241-6.297c-0.117-0.073-0.413-0.161-0.969-0.272
			c-0.748-0.15-0.62-0.819-0.45-1.252c0.364-0.245,0.526-0.604,0.52-1.002c-0.009-0.719-0.554-1.291-1.854-1.273
			c-1.301,0.02-1.83,0.609-1.819,1.33c0.005,0.383,0.164,0.725,0.506,0.956c0.199,0.438,0.376,1.134-0.367,1.301
			c-0.566,0.125-0.867,0.224-0.984,0.297c-2.915,0.97-4.98,3.383-4.98,6.213c0,1.614,0.674,3.096,1.792,4.25
			c-0.016,0-0.034,0-0.05,0c-0.253,0-0.418,0.153-0.418,0.414c0,0.256,0.148,0.479,0.308,0.603c0.027,0.02,0.051,0.041,0.076,0.062
			c-0.485,0.421-0.757,0.903-0.757,1.414c0,0.587,0.357,1.136,0.985,1.599c-0.041,0.053-0.071,0.113-0.071,0.191
			c0,0.203,0.141,0.378,0.29,0.479c0.099,0.062,0.176,0.132,0.323,0.199c0.212,0.312,0.487,0.791,0.551,1.248
			c0.095,0.653,0.342,1.194-0.896,2.637c-1.013,1.184-1.811,2.468-1.811,3.99c0,0.873,0.223,1.698,0.623,2.447
			c-0.713,0.491-1.086,1.117-1.086,1.876c0,0.45,0.166,0.853,0.467,1.206c-1.076,0.484-0.82,1.928-0.82,3.63
			c-0.01,1.091-0.026,2.653-0.026,2.72c0,1.588,3.334,2.354,8.499,2.354c5.166,0,8.465-0.766,8.465-2.354c0-0.26,0-1.986,0-2.72
			C65.74,127.912,65.757,126.457,64.545,125.991z"/>
	</g>
</g>
<g>
	<path fill="#FFFFFF" d="M129.407,123.167c-0.882-3.387-1.566-4.727-3.427-7.373c-1.451-2.059-2.104-1.946-2.399-3.793
		c-0.73-4.562-0.46-16.366-0.353-31.757c0.069-9.757-0.15-21.78-0.216-22.438c-0.062-0.609-0.289-0.868-0.768-0.962
		c-0.229-0.046-0.706-0.058-0.934-0.002c-0.501,0.121-0.74,0.623-0.77,0.964c-0.055,0.61-0.285,12.68-0.219,22.438
		c0.107,15.391,0.378,27.197-0.352,31.757c-0.297,1.847-0.947,1.734-2.397,3.793c-1.86,2.646-2.547,3.986-3.429,7.373
		c-0.896,3.437-0.92,5.781-0.541,8.236c0.216,1.409,0.783,3.912,2.962,6.012c1.903,1.834,4.2,2.051,5.255,2.066v0.002
		c0.021,0,0.049,0,0.072,0s0.051,0,0.074,0v-0.002c1.033-0.016,3.119-0.234,5.021-2.066c2.177-2.1,2.744-4.603,2.961-6.012
		C130.327,128.948,130.304,126.603,129.407,123.167z"/>
	<path fill="#FFFFFF" d="M103.464,115.794c-1.449-2.061-2.104-1.947-2.397-3.793c-0.729-4.562-0.461-16.367-0.353-31.758
		c0.067-9.757-0.15-21.78-0.217-22.438c-0.062-0.609-0.29-0.868-0.77-0.962c-0.227-0.045-0.706-0.057-0.934-0.001
		c-0.5,0.121-0.738,0.623-0.769,0.964c-0.056,0.61-0.286,12.68-0.218,22.438c0.107,15.391,0.379,27.197-0.353,31.757
		c-0.295,1.847-0.948,1.734-2.397,3.793c-1.86,2.646-2.545,3.986-3.428,7.373c-0.896,3.437-0.92,8.115-0.543,10.57
		c0.219,1.409,0.475,4.649,1.098,5.311c0.641,0.683,7.521,1.138,10.785-0.518c3.351-1.699,4.015-5.483,4.23-6.895
		c0.378-2.455,0.566-4.652-0.309-8.471C106.376,120.922,105.326,118.438,103.464,115.794z"/>
</g>
<path fill="#FFFFFF" d="M183.907,112.265c1.804,1.903,3.636,4.525,4.794,5.849c6.539,10.038,17.888,16.654,30.763,16.587
	c12.652-0.062,23.767-6.564,30.257-16.382c1.07-1.018,3.164-4.193,5.219-6.41c3.169-3.427,6.853-5.238,6.838-8.182l-0.03-5.853
	l-0.028-5.557c-0.015-2.947-3.649-4.665-6.919-8.111c-2.093-2.203-4.221-5.375-5.291-6.373
	c-6.589-9.744-17.767-16.128-30.412-16.063c-12.882,0.064-24.169,6.8-30.604,16.915c-1.152,1.339-2.953,3.965-4.725,5.88
	c-3.17,3.424-6.853,5.234-6.837,8.178l0.029,5.855l0.026,5.557C176.999,107.1,180.635,108.817,183.907,112.265z M195.42,115.484
	l0.644-0.471l0.361,0.522l-0.646,0.472L195.42,115.484z M197.785,118.382l-0.414-0.486l0.592-0.533l0.413,0.481L197.785,118.382z
	 M200.167,120.62l-0.461-0.438l0.532-0.591l0.463,0.437L200.167,120.62z M193.726,106.244l0.185,0.61l-0.871,0.266l-0.185-0.609
	L193.726,106.244z M192.204,104.253l-0.121-0.628l0.894-0.174l0.121,0.63L192.204,104.253z M197.683,113.906l0.364,0.525
	l-0.749,0.52l-0.363-0.524L197.683,113.906z M195.658,112.587l-0.309-0.562l0.799-0.438l0.309,0.559L195.658,112.587z
	 M194.759,108.917l0.249,0.59l-0.84,0.352l-0.247-0.585L194.759,108.917z M199.185,117.173l-0.416-0.484l0.688-0.597l0.418,0.483
	L199.185,117.173z M202.634,122.5l-0.505-0.388l0.466-0.645l0.508,0.385L202.634,122.5z M201.433,119.271l-0.464-0.438l0.621-0.664
	l0.468,0.435L201.433,119.271z M195.708,95.546l0.904,0.111l-0.077,0.636l-0.905-0.11L195.708,95.546z M194.018,93.143l0.14-0.623
	l0.744,0.182l-0.141,0.623L194.018,93.143z M221.972,105.922l0.156,0.752l-0.621,0.143l-0.158-0.75L221.972,105.922z
	 M221.087,104.881l-0.198-0.889l0.624-0.14l0.195,0.891L221.087,104.881z M206.229,117.761l-0.512-0.387l0.552-0.728l0.509,0.388
	L206.229,117.761z M207.979,120.208l-0.404,0.653l-0.549-0.324l0.403-0.653L207.979,120.208z M199.379,104.539l0.19,0.611
	l-0.872,0.267l-0.186-0.612L199.379,104.539z M198.009,103.149l-0.117-0.624l0.889-0.175l0.123,0.625L198.009,103.149z
	 M200.204,106.633l0.252,0.587l-0.836,0.356l-0.251-0.588L200.204,106.633z M201.325,108.746l0.312,0.558l-0.797,0.441l-0.308-0.558
	L201.325,108.746z M202.532,110.538l0.37,0.524l-0.745,0.521l-0.366-0.522L202.532,110.538z M203.93,112.236l0.42,0.48l-0.685,0.597
	l-0.419-0.481L203.93,112.236z M205.483,114.968l-0.466-0.436l0.618-0.666l0.468,0.436L205.483,114.968z M205.143,106.589
	l0.325,0.55c-0.197,0.112-0.414,0.231-0.644,0.357l-0.322-0.552C204.733,106.819,204.948,106.699,205.143,106.589z M203.815,105.757
	l-0.264-0.583c0.245-0.101,0.472-0.197,0.677-0.286l0.263,0.579C204.284,105.559,204.058,105.655,203.815,105.757z M206.104,107.995
	l0.381,0.514c-0.186,0.132-0.385,0.272-0.6,0.423l-0.381-0.515C205.723,108.266,205.924,108.124,206.104,107.995z M207.215,109.332
	l0.431,0.472c-0.168,0.15-0.354,0.31-0.554,0.483l-0.43-0.474C206.862,109.642,207.047,109.479,207.215,109.332z M208.6,110.636
	l0.477,0.424c-0.149,0.167-0.318,0.347-0.498,0.539l-0.477-0.427C208.282,110.981,208.449,110.801,208.6,110.636z M210.708,114.41
	l0.548,0.326l-0.614,1.067l-0.549-0.326L210.708,114.41z M210.056,112.648l-0.519-0.374c0.159-0.209,0.307-0.405,0.439-0.585
	l0.519,0.37C210.362,112.244,210.215,112.439,210.056,112.648z M200.979,94.751l-1.204-0.255l0.141-0.623l1.205,0.254
	L200.979,94.751z M202.762,96.392l-0.062,0.634c-0.226-0.023-0.468-0.054-0.729-0.086l0.063-0.635
	C202.297,96.338,202.539,96.369,202.762,96.392z M202.706,98.095l0.004,0.64c-0.226-0.001-0.473-0.005-0.735-0.012l-0.003-0.639
	C202.237,98.089,202.481,98.093,202.706,98.095z M202.785,99.719l0.069,0.635c-0.223,0.023-0.469,0.041-0.73,0.066l-0.068-0.636
	C202.317,99.761,202.562,99.74,202.785,99.719z M203.078,101.478l0.136,0.625c-0.222,0.043-0.462,0.091-0.721,0.14l-0.138-0.624
	C202.616,101.569,202.857,101.521,203.078,101.478z M203.562,103.224l0.201,0.605c-0.213,0.07-0.448,0.142-0.701,0.218l-0.2-0.607
	C203.114,103.365,203.349,103.294,203.562,103.224z M200.911,100.532l-1.225,0.132l-0.055-0.636l1.22-0.131L200.911,100.532z
	 M201.174,101.856l0.124,0.628l-1.202,0.257l-0.125-0.629L201.174,101.856z M204.521,109.115l0.368,0.521l-0.997,0.727l-0.367-0.521
	L204.521,109.115z M202.698,108.712l-0.312-0.557l1.063-0.615l0.314,0.555L202.698,108.712z M201.71,103.802l0.191,0.609
	l-1.172,0.381l-0.188-0.609L201.71,103.802z M202.446,105.654l0.252,0.587l-1.124,0.502l-0.253-0.587L202.446,105.654z
	 M207.332,116.321l-0.51-0.386l0.545-0.725l0.511,0.386L207.332,116.321z M209.074,118.391l-0.472,0.78l-0.547-0.329l0.471-0.779
	L209.074,118.391z M205.266,111.917l-0.421-0.48l0.913-0.824l0.42,0.48L205.266,111.917z M207.283,112.062l0.471,0.434l-0.823,0.915
	l-0.467-0.435L207.283,112.062z M209.549,117.627l-0.545-0.33l0.466-0.778l0.55,0.329L209.549,117.627z M211.341,119.4l-0.388,0.829
	l-0.578-0.272l0.387-0.826L211.341,119.4z M208.608,114.624l-0.513-0.384l0.724-0.995l0.51,0.381L208.608,114.624z M211.537,117.499
	l0.582,0.268l-0.385,0.826l-0.579-0.271L211.537,117.499z M213.074,119.927l0.604,0.209l-0.298,0.861l-0.604-0.209L213.074,119.927z
	 M214.807,122.526l0.625,0.139l-0.185,0.745l-0.624-0.139L214.807,122.526z M213.382,119.08l0.293-0.857l0.606,0.206l-0.298,0.86
	L213.382,119.08z M212.629,116.663l-0.579-0.269l0.498-1.123l0.581,0.267L212.629,116.663z M211.875,113.689l-0.555-0.318
	c0.138-0.226,0.262-0.436,0.376-0.629l0.557,0.314C212.138,113.252,212.011,113.461,211.875,113.689z M213.358,113.51l0.586,0.254
	c-0.092,0.208-0.195,0.428-0.309,0.667l-0.586-0.257C213.162,113.935,213.266,113.713,213.358,113.51z M207.546,104.043l0.678-0.418
	l0.322,0.552l-0.676,0.419L207.546,104.043z M209.642,106.852l-0.431-0.472l0.577-0.551l0.432,0.473L209.642,106.852z
	 M205.739,99.12l-0.071-0.635l0.791-0.107l0.069,0.636L205.739,99.12z M202.548,93.221l0.194-0.609
	c0.249,0.09,0.481,0.168,0.693,0.239l-0.189,0.606C203.028,93.385,202.797,93.307,202.548,93.221z M211.933,108.728l-0.518-0.374
	l0.45-0.658l0.517,0.375L211.933,108.728z M215.678,114.257c-0.071,0.216-0.151,0.445-0.238,0.695l-0.608-0.195
	c0.087-0.247,0.167-0.478,0.237-0.692L215.678,114.257z M211.007,105.605l-0.43-0.472l0.674-0.615l0.428,0.472L211.007,105.605z
	 M217.839,116.525l0.636,0.077l-0.126,1.223l-0.633-0.075L217.839,116.525z M216.495,115.13c0.059-0.256,0.115-0.495,0.164-0.713
	l0.626,0.129c-0.047,0.22-0.104,0.458-0.163,0.715L216.495,115.13z M214.476,110.019l-0.584-0.256l0.303-0.737l0.583,0.257
	L214.476,110.019z M213.012,107.224l-0.521-0.371l0.531-0.742l0.52,0.371L213.012,107.224z M211.287,102.581l-0.328-0.549
	l0.666-0.382l0.329,0.547L211.287,102.581z M210.313,100.728l-0.208-0.603l0.731-0.234l0.208,0.603L210.313,100.728z
	 M212.704,103.19l0.436,0.466l-0.571,0.512l-0.435-0.466L212.704,103.19z M214.996,107.234l0.583,0.256l-0.364,0.835l-0.585-0.256
	L214.996,107.234z M214.238,105.494l-0.522-0.365l0.453-0.622l0.522,0.368L214.238,105.494z M209.539,96.583l0.058-0.635
	l0.762,0.082l-0.054,0.636L209.539,96.583z M214.032,102.84l-0.432-0.472l0.669-0.613l0.433,0.469L214.032,102.84z M215.783,105.429
	l0.587,0.249l-0.312,0.699l-0.587-0.247L215.783,105.429z M212.553,98.35l-0.903,0.104l-0.073-0.635l0.905-0.102L212.553,98.35z
	 M212.851,99.212l0.204,0.606l-0.862,0.29l-0.202-0.604L212.851,99.212z M213.454,100.572l0.325,0.549l-0.783,0.461l-0.322-0.551
	L213.454,100.572z M220.437,114.676c-0.004,0.226-0.006,0.471-0.015,0.736l-0.637-0.001c0.005-0.261,0.009-0.507,0.012-0.73
	L220.437,114.676z M217.095,108.855l0.183-0.893l0.626,0.129l-0.182,0.893L217.095,108.855z M215.396,103.889l-0.522-0.37
	l0.53-0.741l0.518,0.368L215.396,103.889z M216.853,104.568l-0.585-0.252l0.363-0.836l0.583,0.254L216.853,104.568z M218.3,106.157
	l-0.16,0.749l-0.626-0.124l0.161-0.75L218.3,106.157z M212.415,96.867l-0.904-0.085l0.059-0.635l0.904,0.086L212.415,96.867z
	 M210.646,94.607l-0.729-0.238l0.188-0.609l0.729,0.239L210.646,94.607z M207.941,90.831l-0.701-0.377l0.317-0.555l0.701,0.377
	L207.941,90.831z M208.955,93.403l-0.193,0.608l-0.867-0.273l0.19-0.611L208.955,93.403z M210.369,97.956l0.077,0.633l-0.763,0.079
	l-0.077-0.633L210.369,97.956z M206.894,93.399l-0.762-0.222l0.193-0.61l0.765,0.223L206.894,93.399z M204.503,90.166
	c-0.193-0.114-0.403-0.24-0.631-0.375l0.318-0.554c0.228,0.135,0.438,0.261,0.629,0.375L204.503,90.166z M207.489,95.748l0.908,0.09
	l-0.064,0.634l-0.905-0.088L207.489,95.748z M208.412,98.177l0.07,0.636l-0.906,0.102l-0.071-0.635L208.412,98.177z M206.382,96.265
	l-0.795-0.061l0.063-0.635l0.797,0.061L206.382,96.265z M208.101,100.799l0.866-0.288l0.202,0.606l-0.864,0.287L208.101,100.799z
	 M209.925,102.646l0.325,0.554l-0.788,0.459l-0.324-0.549L209.925,102.646z M202.014,90.94l-1.127-0.5l0.269-0.581l1.125,0.5
	L202.014,90.94z M207.099,101.113l0.2,0.609l-0.75,0.267l-0.2-0.607L207.099,101.113z M202.883,95.179
	c-0.22-0.047-0.459-0.104-0.717-0.165l0.13-0.624c0.259,0.06,0.497,0.115,0.716,0.163L202.883,95.179z M214.446,115.903l0.604,0.204
	l-0.379,1.172l-0.605-0.206L214.446,115.903z M215.708,118.696l0.621,0.145l-0.204,0.887l-0.621-0.146L215.708,118.696z
	 M217.334,120.749l0.635,0.077l-0.112,0.903l-0.636-0.077L217.334,120.749z M215.979,117.514l0.255-1.204l0.621,0.142l-0.252,1.204
	L215.979,117.514z M217.568,118.957l0.634,0.078l-0.11,0.903l-0.632-0.081L217.568,118.957z M219.71,120.873l0.639,0.013
	l-0.017,0.91l-0.639-0.011L219.71,120.873z M219.742,119.975l0.015-0.907l0.639,0.008l-0.016,0.911L219.742,119.975z
	 M217.979,115.327c0.032-0.263,0.062-0.505,0.09-0.727l0.634,0.062c-0.024,0.224-0.056,0.467-0.088,0.729L217.979,115.327z
	 M219.773,116.621l0.639,0.008l0.003,1.23l-0.642-0.008V116.621z M216.723,110.668l0.142-0.784l0.627,0.13l-0.142,0.781
	L216.723,110.668z M222.084,118.928l0.635-0.056l0.08,0.907l-0.636,0.054L222.084,118.928z M221.975,117.717l-0.129-1.223
	l0.635-0.06l0.129,1.226L221.975,117.717z M221.73,115.293c-0.023-0.263-0.044-0.508-0.065-0.729l0.635-0.071
	c0.021,0.223,0.043,0.468,0.065,0.731L221.73,115.293z M220.182,110.941l-0.64,0.002l-0.021-0.797l0.639-0.004L220.182,110.941z
	 M219.528,109.096l-0.003-0.912l0.637-0.004l0.005,0.913L219.528,109.096z M223.833,116.134l0.626-0.126l0.255,1.203l-0.626,0.124
	L223.833,116.134z M223.595,114.947c-0.051-0.259-0.098-0.498-0.14-0.717l0.622-0.138c0.045,0.221,0.092,0.462,0.142,0.722
	L223.595,114.947z M220.146,106.968l-0.638,0.012l0.002-0.767l0.639-0.012L220.146,106.968z M217.917,104.844l0.181-0.893
	l0.624,0.125l-0.181,0.895L217.917,104.844z M222.179,109.911l0.62-0.136l0.189,0.776l-0.623,0.135L222.179,109.911z
	 M221.97,108.882l-0.196-0.891l0.624-0.136l0.195,0.891L221.97,108.882z M220.139,104.992l-0.639,0.006l-0.01-0.909l0.639-0.009
	L220.139,104.992z M213.206,93.836l-0.792-0.447l0.312-0.556l0.793,0.446L213.206,93.836z M211.018,89.768l-0.682-0.605l0.425-0.477
	l0.68,0.604L211.018,89.768z M209.561,88.45l-0.609-0.515l0.426-0.477l0.606,0.516L209.561,88.45z M207.669,85.848
	c-0.148-0.169-0.31-0.353-0.482-0.554l0.472-0.429c0.174,0.202,0.337,0.387,0.484,0.552L207.669,85.848z M211.005,91.849
	l0.666,0.385l-0.312,0.559l-0.662-0.385L211.005,91.849z M211.992,94.362l0.868,0.274l-0.19,0.61l-0.87-0.274L211.992,94.362z
	 M209.641,91.817l-0.791-0.45l0.314-0.556l0.793,0.45L209.641,91.817z M206.55,87.055c-0.167-0.151-0.346-0.319-0.538-0.499
	l0.424-0.477c0.192,0.18,0.373,0.348,0.537,0.499L206.55,87.055z M205.113,85.732l-0.915-0.826l0.434-0.468l0.914,0.824
	L205.113,85.732z M203.308,84.084l-0.666-0.624l0.435-0.465l0.665,0.619L203.308,84.084z M205.226,87.587
	c0.213,0.16,0.407,0.311,0.587,0.441l-0.372,0.518c-0.18-0.134-0.375-0.28-0.586-0.439L205.226,87.587z M203.874,87.382
	l-0.995-0.724l0.384-0.51l0.994,0.722L203.874,87.382z M201.907,85.93l-0.726-0.547l0.385-0.51l0.723,0.544L201.907,85.93z
	 M200.47,84.831l-0.728-0.549l0.385-0.513l0.728,0.55L200.47,84.831z M202.085,88.007l1.065,0.613l-0.323,0.55l-1.067-0.615
	L202.085,88.007z M203.377,90.86c0.239,0.112,0.463,0.215,0.668,0.308l-0.256,0.587c-0.208-0.094-0.428-0.199-0.668-0.309
	L203.377,90.86z M200.715,87.932l-0.778-0.468l0.329-0.548l0.778,0.467L200.715,87.932z M199.173,86.988l-0.78-0.47l0.329-0.548
	l0.778,0.471L199.173,86.988z M200.056,89.347l-0.27,0.582l-0.825-0.385l0.27-0.579L200.056,89.347z M200.429,91.85l1.171,0.379
	l-0.205,0.605l-1.172-0.382L200.429,91.85z M198.152,89.152l-0.825-0.387l0.271-0.579l0.822,0.384L198.152,89.152z M199.278,91.456
	l-0.205,0.606l-0.862-0.295l0.211-0.603L199.278,91.456z M200.836,96.166l-0.078,0.636l-1.222-0.127l0.074-0.635L200.836,96.166z
	 M197.847,93.399l0.884,0.202l-0.142,0.625l-0.885-0.205L197.847,93.399z M196.504,91.162l0.21-0.607l0.86,0.299l-0.208,0.605
	L196.504,91.162z M200.765,98.071l-0.007,0.64h-1.232l0.009-0.638L200.765,98.071z M198.329,96.53l-0.903-0.111l0.079-0.633
	l0.902,0.108L198.329,96.53z M198.321,98.052l-0.011,0.642l-0.909-0.017l0.014-0.638L198.321,98.052z M198.418,100.135l0.058,0.637
	l-0.906,0.079l-0.054-0.636L198.418,100.135z M196.503,98.647l-0.913-0.014l0.012-0.643l0.911,0.018L196.503,98.647z
	 M196.617,100.276l0.056,0.64l-0.908,0.078l-0.053-0.639L196.617,100.276z M194.381,98.607l-0.769-0.024l0.008-0.639l0.767,0.023
	L194.381,98.607z M196.106,102.854l0.896-0.174l0.122,0.627l-0.894,0.175L196.106,102.854z M201.045,111.562l0.366,0.526
	l-0.746,0.522l-0.367-0.525L201.045,111.562z M199.249,110.61l-0.311-0.562l0.799-0.44l0.309,0.56L199.249,110.61z M202.554,113.41
	l0.421,0.482l-0.689,0.599l-0.419-0.482L202.554,113.41z M197.648,105.057l0.187,0.608l-0.873,0.269l-0.188-0.613L197.648,105.057z
	 M194.558,101.098l-0.763,0.058l-0.062-0.636l0.766-0.059L194.558,101.098z M197.696,107.681l0.839-0.354l0.249,0.589l-0.839,0.354
	L197.696,107.681z M202.942,116.734l0.468,0.433l-0.529,0.553l-0.471-0.433L202.942,116.734z M200.788,115.78l-0.426-0.479
	l0.588-0.496l0.421,0.478L200.788,115.78z M199.302,112.781l0.368,0.522l-0.632,0.432l-0.37-0.521L199.302,112.781z M197.515,111.56
	l-0.313-0.559l0.675-0.361l0.313,0.556L197.515,111.56z M195.805,106.284l-0.737,0.213l-0.19-0.607l0.735-0.214L195.805,106.284z
	 M196.578,108.154l0.255,0.588l-0.709,0.289l-0.255-0.584L196.578,108.154z M205.525,124.262l-0.545-0.332l0.396-0.69l0.547,0.332
	L205.525,124.262z M203.751,121.025l-0.508-0.384l0.549-0.729l0.512,0.386L203.751,121.025z M206.406,121.569l0.547,0.33
	l-0.475,0.781l-0.543-0.332L206.406,121.569z M208.426,125.609l-0.576-0.274l0.322-0.726l0.577,0.272L208.426,125.609z
	 M205.031,119.332l-0.515-0.383l0.472-0.605l0.511,0.383L205.031,119.332z M203.771,115.846l0.622-0.666l0.467,0.436l-0.622,0.667
	L203.771,115.846z M208.634,123.666l0.388-0.825l0.578,0.27l-0.39,0.825L208.634,123.666z M211.426,126.615l-0.602-0.211
	l0.246-0.758l0.602,0.21L211.426,126.615z M209.86,121.056l0.583,0.268l-0.334,0.688l-0.581-0.266L209.86,121.056z M211.433,124.659
	l0.297-0.86l0.604,0.209l-0.3,0.861L211.433,124.659z M214.351,127.279l-0.62-0.147l0.163-0.779l0.62,0.146L214.351,127.279z
	 M212.12,122.658l0.26-0.721l0.605,0.204l-0.259,0.72L212.12,122.658z M214.148,125.333l0.206-0.887l0.623,0.144l-0.207,0.891
	L214.148,125.333z M217.113,127.634l-0.632-0.083l0.084-0.791l0.632,0.079L217.113,127.634z M217.345,125.8l-0.632-0.081
	l0.112-0.904l0.634,0.08L217.345,125.8z M215.083,121.342l0.204-0.886l0.622,0.144l-0.204,0.888L215.083,121.342z M217.073,122.857
	l0.634,0.074l-0.102,0.76l-0.635-0.074L217.073,122.857z M220.21,127.742l-0.638-0.014l-0.002-0.797l0.64,0.015V127.742z
	 M220.249,125.896l-0.638-0.014l0.018-0.912l0.639,0.014L220.249,125.896z M220.284,123.773l-0.639-0.008l0.025-0.766l0.638,0.007
	L220.284,123.773z M223.442,127.51l-0.638,0.053l-0.085-0.792l0.636-0.054L223.442,127.51z M223.285,125.668l-0.636,0.054
	l-0.077-0.908l0.636-0.055L223.285,125.668z M223.099,123.553l-0.634,0.062l-0.058-0.765l0.636-0.061L223.099,123.553z
	 M222.305,121.639l-0.079-0.908l0.637-0.056l0.078,0.908L222.305,121.639z M226.572,126.92l-0.628,0.119l-0.165-0.78l0.627-0.118
	L226.572,126.92z M226.226,125.104l-0.627,0.12l-0.171-0.896l0.627-0.12L226.226,125.104z M225.822,123.021l-0.626,0.127
	l-0.137-0.754l0.625-0.127L225.822,123.021z M225.457,121.078l-0.627,0.121l-0.175-0.894l0.628-0.122L225.457,121.078z
	 M224.501,119.42l-0.176-0.892l0.627-0.124l0.174,0.894L224.501,119.42z M229.52,126.048l-0.61,0.184l-0.246-0.759l0.609-0.184
	L229.52,126.048z M228.985,124.277l-0.61,0.184l-0.265-0.873l0.611-0.185L228.985,124.277z M228.363,122.248l-0.608,0.191
	l-0.215-0.737l0.609-0.189L228.363,122.248z M227.798,120.354l-0.61,0.186l-0.269-0.872l0.613-0.186L227.798,120.354z
	 M227.284,118.616l-0.611,0.189l-0.265-0.871l0.609-0.187L227.284,118.616z M226.659,116.585l-0.61,0.188l-0.382-1.17l0.612-0.189
	L226.659,116.585z M225.306,114.452c-0.076-0.253-0.148-0.488-0.214-0.699l0.606-0.201c0.064,0.216,0.139,0.45,0.214,0.703
	L225.306,114.452z M232.434,124.818l-0.592,0.245l-0.323-0.727l0.588-0.246L232.434,124.818z M231.715,123.114l-0.59,0.248
	l-0.353-0.842l0.589-0.247L231.715,123.114z M230.885,121.161l-0.585,0.252l-0.29-0.709l0.585-0.254L230.885,121.161z
	 M230.124,119.336l-0.587,0.249l-0.355-0.839l0.587-0.249L230.124,119.336z M229.431,117.663l-0.586,0.249l-0.355-0.837l0.585-0.252
	L229.431,117.663z M228.598,115.706l-0.587,0.252l-0.502-1.124l0.588-0.252L228.598,115.706z M227.611,113.465l-0.583,0.262
	c-0.103-0.243-0.197-0.469-0.287-0.672l0.582-0.263C227.411,112.997,227.509,113.222,227.611,113.465z M225.638,109.608
	l-0.585,0.262l-0.344-0.719l0.581-0.261L225.638,109.608z M224.873,107.924l-0.582,0.266l-0.378-0.831l0.582-0.265L224.873,107.924z
	 M223.988,105.994l-0.577,0.27l-0.312-0.699l0.579-0.27L223.988,105.994z M223.177,104.193l-0.581,0.266l-0.379-0.83l0.581-0.266
	L223.177,104.193z M243.475,89.937l-0.191-0.607l0.738-0.215l0.189,0.61L243.475,89.937z M244.831,91.898l0.124,0.627l-0.752,0.136
	l-0.127-0.626L244.831,91.898z M242.474,87.443l-0.252-0.586l0.71-0.291l0.254,0.586L242.474,87.443z M246.462,94.275l0.907-0.076
	l0.054,0.636l-0.906,0.076L246.462,94.275z M241.261,85.048l-0.314-0.557l0.674-0.362l0.315,0.557L241.261,85.048z M237.401,77.401
	l-0.463-0.435l0.623-0.666l0.465,0.438L237.401,77.401z M240.079,81.934l0.369,0.519l-0.635,0.432l-0.368-0.52L240.079,81.934z
	 M237.969,80.674l-0.42-0.478l0.582-0.495l0.423,0.479L237.969,80.674z M236.052,78.837l-0.467-0.433l0.528-0.551l0.471,0.432
	L236.052,78.837z M243.011,92.891l-0.895,0.175l-0.122-0.628l0.896-0.173L243.011,92.891z M245.504,96.729l-0.006,0.639
	l-0.769-0.023l0.011-0.638L245.504,96.729z M243.518,97.322l-0.913-0.017l0.012-0.64l0.912,0.017L243.518,97.322z M245.423,99.589
	l-0.076,0.634l-0.76-0.104l0.073-0.634L245.423,99.589z M226.602,102.926l0.568,0.514l-0.419,0.481l-0.567-0.515L226.602,102.926z
	 M225.272,102.604L224.592,102l0.42-0.479l0.685,0.603L225.272,102.604z M236.607,89.942l-0.254-0.586l1.126-0.501l0.252,0.586
	L236.607,89.942z M238.357,90.821l0.188,0.61l-1.166,0.379l-0.193-0.609L238.357,90.821z M235.685,88.146l-0.313-0.556l1.066-0.617
	l0.311,0.558L235.685,88.146z M234.595,86.549l-0.371-0.522l0.995-0.723l0.369,0.521L234.595,86.549z M233.161,84.865l-0.422-0.479
	l0.913-0.825l0.423,0.481L233.161,84.865z M220.652,90.067l0.182-0.891l0.626,0.126l-0.181,0.892L220.652,90.067z M226.647,100.688
	l-0.316,0.556l-0.79-0.449l0.312-0.556L226.647,100.688z M222.407,89.594l0.586,0.255l-0.363,0.833l-0.586-0.253L222.407,89.594z
	 M226.21,94.803l-0.203-0.607l0.863-0.288l0.203,0.606L226.21,94.803z M227.336,95.489l0.073,0.634l-0.905,0.104l-0.073-0.633
	L227.336,95.489z M225.726,93.63l-0.326-0.55l0.785-0.462l0.324,0.55L225.726,93.63z M224.986,92.561l-0.433-0.472l0.671-0.616
	l0.43,0.471L224.986,92.561z M223.913,91.511l-0.521-0.369l0.528-0.742l0.521,0.372L223.913,91.511z M221.076,87.988l0.16-0.75
	l0.627,0.122l-0.161,0.75L221.076,87.988z M226.624,97.106l0.905,0.088l-0.059,0.635l-0.908-0.085L226.624,97.106z M229.169,99.636
	l-0.188,0.61l-0.726-0.238l0.186-0.611L229.169,99.636z M230.21,102.709l-0.314,0.555l-0.792-0.45l0.315-0.556L230.21,102.709z
	 M231.117,103.244l0.702,0.378l-0.316,0.554l-0.702-0.378L231.117,103.244z M233.687,107.036c0.182,0.133,0.378,0.283,0.588,0.44
	l-0.374,0.517c-0.208-0.157-0.406-0.303-0.584-0.438L233.687,107.036z M230.134,100.603l0.191-0.608l0.87,0.275l-0.194,0.607
	L230.134,100.603z M229.3,95.273l0.079,0.634l-0.761,0.079l-0.08-0.635L229.3,95.273z M228.226,94.126l-0.206-0.603l0.729-0.235
	l0.208,0.603L228.226,94.126z M232.763,101.436l-0.766-0.222l0.195-0.609l0.764,0.223L232.763,101.436z M235.335,105.63l-0.32,0.554
	c-0.225-0.136-0.435-0.262-0.625-0.375l0.313-0.555C234.897,105.368,235.108,105.493,235.335,105.63z M230.639,98.139l0.063-0.636
	l0.908,0.089l-0.064,0.637L230.639,98.139z M230.573,95.767l-0.071-0.635l0.908-0.102l0.07,0.635L230.573,95.767z M230.097,93.505
	l-0.203-0.606l0.866-0.288l0.2,0.606L230.097,93.505z M228.934,91.002l0.785-0.461l0.322,0.552l-0.785,0.46L228.934,91.002z
	 M235.913,101.95c0.211,0.074,0.444,0.153,0.693,0.239l-0.196,0.607c-0.25-0.088-0.479-0.169-0.691-0.237L235.913,101.95z
	 M237.107,104.602l1.126,0.5l-0.268,0.581l-1.123-0.5L237.107,104.602z M232.525,95.565l-0.066-0.636l0.79-0.105l0.067,0.634
	L232.525,95.565z M236.244,100.204c0.219,0.048,0.459,0.104,0.716,0.163l-0.133,0.626c-0.257-0.061-0.496-0.116-0.711-0.164
	L236.244,100.204z M232.714,92.632l-0.751,0.27l-0.2-0.607l0.752-0.268L232.714,92.632z M230.635,90.023l0.679-0.418l0.322,0.551
	l-0.679,0.42L230.635,90.023z M236.39,98.49c0.225,0.024,0.469,0.056,0.73,0.087l-0.065,0.634c-0.262-0.031-0.504-0.061-0.725-0.086
	L236.39,98.49z M228.321,83.39c0.133-0.185,0.281-0.378,0.438-0.59l0.519,0.374c-0.157,0.21-0.307,0.407-0.439,0.583L228.321,83.39z
	 M238.146,100.632l1.202,0.256l-0.142,0.623l-1.2-0.257L238.146,100.632z M236.407,96.581c0.225,0,0.472,0.006,0.734,0.012
	l0.003,0.637c-0.262-0.006-0.509-0.009-0.731-0.012L236.407,96.581z M236.267,95.82l-0.072-0.632
	c0.226-0.022,0.471-0.043,0.732-0.067l0.067,0.634C236.733,95.778,236.486,95.798,236.267,95.82z M236.039,94.267l-0.135-0.625
	c0.22-0.044,0.463-0.091,0.722-0.142l0.133,0.625C236.501,94.176,236.259,94.222,236.039,94.267z M235.523,92.387l-0.2-0.604
	c0.213-0.067,0.449-0.137,0.701-0.215l0.198,0.605C235.971,92.251,235.739,92.321,235.523,92.387z M234.561,90.129
	c0.206-0.089,0.433-0.186,0.675-0.29l0.263,0.583c-0.244,0.102-0.469,0.198-0.674,0.287L234.561,90.129z M233.671,88.547
	c0.194-0.112,0.409-0.232,0.64-0.36l0.319,0.551c-0.229,0.129-0.443,0.248-0.637,0.357L233.671,88.547z M238.139,95.002l1.225-0.127
	l0.058,0.636l-1.224,0.129L238.139,95.002z M231.71,83.509l-0.472-0.432l0.826-0.914l0.467,0.433L231.71,83.509z M233.232,86.734
	l0.376,0.514c-0.217,0.152-0.416,0.293-0.598,0.424l-0.379-0.516C232.815,87.026,233.016,86.885,233.232,86.734z M231.702,86.146
	l-0.43-0.471c0.169-0.15,0.354-0.311,0.553-0.484l0.43,0.474C232.056,85.837,231.872,85.998,231.702,86.146z M230.394,84.937
	l-0.475-0.424c0.148-0.166,0.318-0.346,0.497-0.54l0.479,0.427C230.712,84.591,230.545,84.772,230.394,84.937z M228.364,81.222
	l-0.548-0.325l0.613-1.065l0.549,0.326L228.364,81.222z M226.613,80.401l-0.581-0.267l0.5-1.124l0.579,0.268L226.613,80.401z
	 M227.194,81.943l0.553,0.318c-0.134,0.227-0.26,0.438-0.374,0.63l-0.554-0.317C226.933,82.378,227.06,82.169,227.194,81.943z
	 M229.616,87.46l0.43,0.472l-0.576,0.552l-0.431-0.474L229.616,87.46z M225.802,82.165l-0.585-0.256
	c0.093-0.206,0.197-0.427,0.308-0.667l0.584,0.258C225.996,81.738,225.894,81.963,225.802,82.165z M227.381,85.564l0.52,0.37
	l-0.449,0.661l-0.521-0.374L227.381,85.564z M224.085,81.6l-0.609-0.194c0.073-0.212,0.152-0.445,0.238-0.694l0.607,0.194
	C224.235,81.155,224.157,81.389,224.085,81.6z M228.249,88.708l0.434,0.473l-0.674,0.612l-0.432-0.472L228.249,88.708z
	 M226.293,88.179l-0.521-0.374l0.532-0.74l0.521,0.373L226.293,88.179z M227.893,91.621l0.329,0.548l-0.665,0.38l-0.329-0.543
	L227.893,91.621z M226.552,91.121l-0.435-0.467l0.572-0.511l0.434,0.467L226.552,91.121z M224.265,86.928l-0.583-0.256l0.363-0.836
	l0.585,0.258L224.265,86.928z M222.511,84.262l-0.625-0.131l0.145-0.783l0.624,0.128L222.511,84.262z M225.073,88.793l0.523,0.367
	l-0.451,0.619l-0.522-0.365L225.073,88.793z M229.496,97.392l-0.056,0.637l-0.762-0.083l0.055-0.635L229.496,97.392z
	 M223.478,88.732l-0.589-0.25l0.314-0.698l0.587,0.249L223.478,88.732z M222.1,86.18l-0.625-0.129l0.181-0.892l0.627,0.129
	L222.1,86.18z M218.662,80.965l-0.64,0.003c0.003-0.224,0.008-0.468,0.01-0.732l0.639-0.005
	C218.668,80.497,218.664,80.743,218.662,80.965z M219.744,83.139l0.024,0.795l-0.64,0.003l-0.023-0.795L219.744,83.139z
	 M219.758,84.986l0.006,0.913l-0.64,0.003l-0.004-0.912L219.758,84.986z M219.779,87.102l-0.003,0.765l-0.639,0.012l0.004-0.767
	L219.779,87.102z M217.013,84.176l-0.625,0.138l-0.188-0.775l0.624-0.138L217.013,84.176z M219.789,89.081l0.007,0.914L219.156,90
	l-0.004-0.911L219.789,89.081z M228.082,104.237l0.68,0.604l-0.425,0.48l-0.682-0.606L228.082,104.237z M229.72,106.548
	l-0.609-0.517l0.426-0.476l0.607,0.516L229.72,106.548z M232.04,110.237l-0.474,0.428c-0.169-0.198-0.332-0.383-0.48-0.551
	l0.473-0.43C231.709,109.852,231.87,110.039,232.04,110.237z M228.053,102.227l-0.66-0.387l0.307-0.559l0.663,0.386L228.053,102.227
	z M227.095,99.641l-0.869-0.273l0.191-0.609l0.869,0.273L227.095,99.641z M232.759,108.328c0.163,0.153,0.346,0.321,0.538,0.501
	l-0.426,0.474c-0.192-0.178-0.371-0.345-0.535-0.495L232.759,108.328z M234.195,109.651l0.914,0.824l-0.435,0.471l-0.913-0.823
	L234.195,109.651z M236,111.306l0.665,0.616l-0.435,0.47l-0.664-0.62L236,111.306z M234.871,108.714l0.381-0.513l0.998,0.723
	l-0.386,0.512L234.871,108.714z M237.222,109.654l0.728,0.547l-0.385,0.511l-0.728-0.547L237.222,109.654z M238.659,110.755
	l0.725,0.55L239,111.813l-0.727-0.548L238.659,110.755z M237.121,107.413l-1.065-0.614l0.325-0.552l1.067,0.616L237.121,107.413z
	 M235.743,104.681c-0.24-0.112-0.462-0.216-0.664-0.309l0.254-0.583c0.204,0.092,0.429,0.195,0.667,0.308L235.743,104.681z
	 M232.591,98.348l0.061-0.635l0.798,0.06l-0.065,0.636L232.591,98.348z M238.491,107.486l0.781,0.47l-0.33,0.546l-0.779-0.466
	L238.491,107.486z M240.035,108.435l0.782,0.47l-0.33,0.547l-0.781-0.47L240.035,108.435z M239.066,106.193l0.27-0.579l0.823,0.382
	l-0.271,0.579L239.066,106.193z M238.724,103.561l-1.167-0.38l0.204-0.604l1.171,0.379L238.724,103.561z M240.968,106.393
	l0.828,0.385l-0.271,0.578l-0.827-0.384L240.968,106.393z M239.876,103.953l0.206-0.605l0.86,0.294l-0.209,0.606L239.876,103.953z
	 M238.255,99.349l0.073-0.634l1.225,0.128l-0.076,0.635L238.255,99.349z M241.28,101.984l-0.888-0.203l0.142-0.623l0.89,0.204
	L241.28,101.984z M242.651,104.249l-0.211,0.603l-0.861-0.295l0.21-0.604L242.651,104.249z M238.353,97.24l0.005-0.638l1.233-0.001
	l-0.008,0.639L238.353,97.24z M243.793,104.646l0.724,0.259l-0.205,0.604l-0.721-0.26L243.793,104.646z M240.761,98.99l0.902,0.108
	l-0.077,0.635l-0.903-0.108L240.761,98.99z M237.943,93.886l-0.127-0.625l1.206-0.256l0.123,0.626L237.943,93.886z M240.805,96.621
	l0.91,0.014l-0.011,0.639l-0.908-0.015L240.805,96.621z M242.556,99.226l0.905,0.111l-0.08,0.631l-0.904-0.109L242.556,99.226z
	 M244.361,102.061l0.744,0.183l-0.139,0.622l-0.744-0.182L244.361,102.061z M240.63,95.403l-0.057-0.638l0.906-0.08l0.054,0.636
	L240.63,95.403z M240.338,93.396l-0.123-0.628l0.894-0.174l0.12,0.627L240.338,93.396z M236.581,85.126l-0.368-0.522l0.745-0.523
	l0.364,0.526L236.581,85.126z M238.295,85.939l0.308,0.559l-0.793,0.442l-0.311-0.557L238.295,85.939z M234.99,83.244l-0.424-0.482
	l0.69-0.598l0.417,0.481L234.99,83.244z M239.708,91.073l-0.189-0.609l0.871-0.271l0.186,0.612L239.708,91.073z M238.848,88.964
	l-0.253-0.587l0.838-0.356l0.249,0.588L238.848,88.964z M241.441,90.559l-0.187-0.613l0.872-0.266l0.186,0.611L241.441,90.559z
	 M240.515,88.273l-0.247-0.591l0.84-0.355l0.247,0.589L240.515,88.273z M239.397,86.076l-0.309-0.559l0.799-0.44l0.308,0.559
	L239.397,86.076z M238.451,83.055l0.366,0.524l-0.746,0.521l-0.365-0.521L238.451,83.055z M236.362,82.068l-0.42-0.482l0.691-0.599
	l0.416,0.482L236.362,82.068z M234.602,80.393l-0.467-0.438l0.623-0.665l0.466,0.435L234.602,80.393z M231.643,75.749l-0.551-0.324
	l0.404-0.653l0.551,0.326L231.643,75.749z M232.59,77.688l0.508,0.384l-0.549,0.728l-0.51-0.386L232.59,77.688z M233.51,80.604
	l0.466,0.436l-0.618,0.666l-0.468-0.434L233.51,80.604z M231.484,79.124l0.511,0.388l-0.548,0.724l-0.511-0.385L231.484,79.124z
	 M229.998,77.239l0.47-0.779l0.547,0.33l-0.471,0.782L229.998,77.239z M228.401,76.544l-0.58-0.271l0.385-0.827l0.579,0.271
	L228.401,76.544z M229.521,78.006l0.549,0.33l-0.468,0.779l-0.55-0.328L229.521,78.006z M230.209,80.825l0.511,0.382l-0.722,0.995
	l-0.512-0.382L230.209,80.825z M227.623,78.176l-0.582-0.269l0.385-0.824l0.578,0.271L227.623,78.176z M226.083,75.739l-0.605-0.21
	l0.299-0.862l0.603,0.208L226.083,75.739z M224.229,73.104l-0.623-0.139l0.183-0.744l0.623,0.142L224.229,73.104z M225.775,76.584
	l-0.295,0.858l-0.606-0.207l0.296-0.862L225.775,76.584z M223.745,75.177l-0.619-0.146l0.203-0.889l0.625,0.145L223.745,75.177z
	 M225.087,78.592l-0.377,1.169l-0.607-0.204l0.38-1.171L225.087,78.592z M223.326,76.935l-0.622-0.143l0.205-0.887l0.621,0.144
	L223.326,76.935z M221.339,74.845l-0.633-0.081l0.11-0.903l0.634,0.078L221.339,74.845z M223.056,78.119l-0.255,1.204l-0.624-0.141
	l0.258-1.205L223.056,78.119z M221.104,76.635l-0.635-0.073l0.112-0.906l0.633,0.079L221.104,76.635z M224.786,84.142l0.584,0.254
	l-0.302,0.74l-0.587-0.258L224.786,84.142z M222.374,81.215l-0.623-0.129c0.049-0.22,0.104-0.459,0.161-0.718l0.625,0.132
	C222.479,80.756,222.425,80.998,222.374,81.215z M220.833,79.066l-0.636-0.075l0.127-1.225l0.636,0.077L220.833,79.066z
	 M218.748,74.774l-0.639-0.013l0.017-0.909l0.641,0.012L218.748,74.774z M218.717,75.674l-0.014,0.906l-0.642-0.008l0.018-0.909
	L218.717,75.674z M220.057,80.201l0.637,0.063c-0.033,0.26-0.062,0.506-0.087,0.728l-0.636-0.061
	C219.995,80.706,220.025,80.463,220.057,80.201z M218.687,79.025l-0.641-0.007v-1.229l0.639,0.006L218.687,79.025z M216.405,74.988
	l-0.638,0.055l-0.079-0.909l0.637-0.055L216.405,74.988z M216.468,75.885l0.079,0.904l-0.635,0.059l-0.081-0.908L216.468,75.885z
	 M216.655,78l0.129,1.224l-0.637,0.057l-0.128-1.224L216.655,78z M216.896,80.425c0.026,0.264,0.049,0.505,0.068,0.729l-0.634,0.071
	c-0.022-0.223-0.044-0.469-0.066-0.733L216.896,80.425z M214.428,77.209l-0.627,0.124l-0.175-0.893l0.628-0.122L214.428,77.209z
	 M214.661,78.401l0.257,1.201l-0.625,0.128l-0.257-1.205L214.661,78.401z M215.156,80.787c0.052,0.258,0.098,0.497,0.144,0.72
	l-0.624,0.134c-0.044-0.221-0.093-0.463-0.143-0.722L215.156,80.787z M217.222,85.21l0.196,0.888l-0.623,0.137l-0.197-0.889
	L217.222,85.21z M217.682,87.271l0.158,0.751l-0.62,0.143l-0.159-0.751L217.682,87.271z M218.102,89.208l0.2,0.89l-0.624,0.139
	l-0.197-0.888L218.102,89.208z M225.226,105.241l-0.448-0.621l0.51-0.384l0.447,0.621L225.226,105.241z M234.253,121.73
	l-0.559,0.308l-0.438-0.797l0.56-0.31L234.253,121.73z M231.415,116.546l-0.56,0.311l-0.443-0.794l0.561-0.312L231.415,116.546z
	 M213.702,82.011l-0.606,0.2c-0.068-0.214-0.14-0.448-0.216-0.701l0.604-0.2C213.562,81.563,213.636,81.8,213.702,82.011z
	 M224.565,103.264l-0.513,0.38l-0.542-0.731l0.513-0.382L224.565,103.264z M214.439,84.957l-0.583,0.262l-0.344-0.718l0.579-0.264
	L214.439,84.957z M214.858,85.919l0.374,0.832l-0.581,0.263l-0.375-0.83L214.858,85.919z M215.736,87.843l0.311,0.702l-0.577,0.272
	l-0.311-0.702L215.736,87.843z M216.551,89.652l0.379,0.826l-0.583,0.268l-0.375-0.827L216.551,89.652z M228.259,112.246l0.55-0.325
	c0.11,0.197,0.229,0.412,0.357,0.643l-0.553,0.319C228.486,112.654,228.367,112.439,228.259,112.246z M229.207,113.938l0.559-0.312
	l0.614,1.063L229.821,115L229.207,113.938z M231.277,117.651l0.56-0.31l0.44,0.798l-0.56,0.311L231.277,117.651z M232.308,119.512
	l0.556-0.313l0.363,0.676l-0.557,0.312L232.308,119.512z M234.587,123.657l-0.402-0.689l0.562-0.308l0.399,0.689L234.587,123.657z
	 M225.945,106.206l0.514-0.379l0.542,0.733l-0.515,0.38L225.945,106.206z M227.096,107.796l0.515-0.377l0.487,0.63l-0.514,0.377
	L227.096,107.796z M229.724,111.272l0.512-0.379c0.129,0.183,0.271,0.384,0.422,0.6l-0.514,0.376
	C229.992,111.654,229.851,111.453,229.724,111.272z M230.845,112.854l0.52-0.369l0.725,0.997l-0.523,0.365L230.845,112.854z
	 M232.267,114.841l0.521-0.365l0.524,0.744l-0.524,0.368L232.267,114.841z M233.291,116.333l0.524-0.366l0.521,0.746l-0.524,0.366
	L233.291,116.333z M234.509,118.074l0.52-0.368l0.435,0.633l-0.522,0.37L234.509,118.074z M235.634,119.692l0.524-0.363l0.521,0.749
	l-0.523,0.364L235.634,119.692z M237.209,121.959l-0.468-0.644l0.523-0.363l0.469,0.643L237.209,121.959z M232.37,111.573
	l0.477-0.423l0.822,0.915l-0.479,0.42L232.37,111.573z M233.99,113.399l0.48-0.419l0.596,0.685l-0.48,0.421L233.99,113.399z
	 M235.165,114.774l0.481-0.417l0.598,0.687l-0.481,0.42L235.165,114.774z M236.559,116.382l0.479-0.423l0.494,0.585l-0.479,0.423
	L236.559,116.382z M237.845,117.874l0.485-0.42l0.595,0.691l-0.482,0.419L237.845,117.874z M239.649,119.961l-0.535-0.591
	l0.485-0.418l0.534,0.593L239.649,119.961z M236.876,113.015l0.438-0.467l0.664,0.623l-0.435,0.467L236.876,113.015z
	 M238.431,114.466l0.432-0.469l0.556,0.531l-0.433,0.469L238.431,114.466z M239.868,115.816l0.437-0.466l0.664,0.624l-0.436,0.467
	L239.868,115.816z M241.88,117.705l-0.591-0.532l0.435-0.466l0.595,0.532L241.88,117.705z M239.97,112.548l0.381-0.515l0.607,0.472
	l-0.383,0.513L239.97,112.548z M241.541,113.737l0.385-0.508l0.727,0.553l-0.388,0.508L241.541,113.737z M243.738,115.407
	l-0.646-0.47l0.386-0.507l0.647,0.47L243.738,115.407z M242.178,110.481l-0.648-0.402l0.323-0.55l0.652,0.402L242.178,110.481z
	 M243.214,111.099l0.33-0.546l0.781,0.473l-0.331,0.545L243.214,111.099z M245.574,112.528l-0.69-0.4l0.333-0.544l0.688,0.397
	L245.574,112.528z M243.315,108.204l-0.688-0.332l0.264-0.58l0.69,0.332L243.315,108.204z M245.233,109.1l-0.825-0.388l0.272-0.579
	l0.826,0.388L245.233,109.1z M246.906,109.884l-0.729-0.322l0.272-0.578l0.729,0.324L246.906,109.884z M243.04,102.41l-0.888-0.207
	l0.144-0.623l0.887,0.206L243.04,102.41z M246.312,106.2l-0.86-0.301l0.21-0.605l0.86,0.301L246.312,106.2z M248.057,106.805
	l-0.757-0.245l0.211-0.604l0.757,0.246L248.057,106.805z M247.03,103.341l-0.889-0.209l0.146-0.621l0.889,0.208L247.03,103.341z
	 M242.434,95.26l-0.056-0.637l0.908-0.079l0.055,0.635L242.434,95.26z M248.829,103.763l-0.78-0.165l0.146-0.623l0.78,0.167
	L248.829,103.763z M247.446,100.481l-0.902-0.114l0.078-0.635l0.904,0.113L247.446,100.481z M244.552,95.075l-0.06-0.635
	l0.765-0.057l0.061,0.637L244.552,95.075z M249.28,100.712l-0.793-0.083l0.081-0.633l0.793,0.083L249.28,100.712z M247.611,97.405
	l-0.91-0.02l0.012-0.639l0.914,0.021L247.611,97.405z M249.459,97.443l-0.797,0l0.015-0.637l0.798-0.001L249.459,97.443z
	 M246.138,92.292l-0.118-0.627l0.896-0.17l0.119,0.626L246.138,92.292z M242.986,84.098l-0.31-0.559l0.801-0.438l0.308,0.558
	L242.986,84.098z M244.884,85.738l0.248,0.588l-0.842,0.354l-0.247-0.589L244.884,85.738z M241.433,81.759l-0.367-0.525l0.751-0.519
	l0.363,0.524L241.433,81.759z M245.175,88.758l0.873-0.263l0.187,0.61l-0.873,0.263L245.175,88.758z M249.266,94.68l-0.793,0.083
	l-0.054-0.636l0.793-0.084L249.266,94.68z M248.002,88.57l-0.758,0.247l-0.182-0.61l0.756-0.247L248.002,88.57z M246.836,85.61
	l-0.728,0.323l-0.248-0.587l0.729-0.326L246.836,85.61z M258.315,103.298l-0.062-10.892c-0.004-0.632,0.305-1.144,0.685-1.147
	c0.38,0,0.692,0.51,0.695,1.139l0.059,10.893c0.004,0.631-0.3,1.145-0.681,1.147C258.632,104.438,258.319,103.93,258.315,103.298z
	 M245.403,82.769l-0.689,0.399l-0.308-0.56l0.692-0.401L245.403,82.769z M243.698,80.184l-0.646,0.468l-0.362-0.524l0.645-0.469
	L243.698,80.184z M241.134,77.1l0.416,0.483l-0.593,0.535l-0.415-0.485L241.134,77.1z M248.731,91.147l0.118,0.627l-0.779,0.167
	l-0.119-0.626L248.731,91.147z M238.826,74.951l0.465,0.44l-0.532,0.592l-0.466-0.438L238.826,74.951z M240.151,78.792l-0.689,0.596
	l-0.419-0.484l0.691-0.594L240.151,78.792z M236.182,72.947l0.508,0.388l-0.469,0.645l-0.506-0.385L236.182,72.947z M233.545,71.371
	l0.545,0.333l-0.396,0.692l-0.545-0.331L233.545,71.371z M235.065,74.421l0.509,0.386l-0.552,0.727l-0.509-0.385L235.065,74.421z
	 M232.663,74.063l-0.546-0.329l0.472-0.782l0.547,0.332L232.663,74.063z M230.735,70.063l0.577,0.275l-0.321,0.727l-0.578-0.273
	L230.735,70.063z M233.788,76.116l0.513,0.381l-0.471,0.605l-0.511-0.38L233.788,76.116z M230.527,72.009l-0.388,0.826l-0.579-0.272
	l0.391-0.825L230.527,72.009z M227.729,69.048l0.603,0.212l-0.245,0.758l-0.604-0.212L227.729,69.048z M229.298,74.617l-0.578-0.266
	l0.332-0.691l0.581,0.267L229.298,74.617z M227.726,71.005l-0.3,0.862l-0.604-0.209l0.301-0.861L227.726,71.005z M224.686,68.352
	l0.62,0.147l-0.163,0.779l-0.62-0.145L224.686,68.352z M227.036,73.005l-0.261,0.723l-0.604-0.205l0.259-0.722L227.036,73.005z
	 M224.265,70.154l0.622,0.146l-0.209,0.888l-0.622-0.145L224.265,70.154z M221.56,67.958l0.632,0.083l-0.082,0.792l-0.632-0.082
	L221.56,67.958z M221.328,69.794l0.635,0.078l-0.115,0.905l-0.634-0.078L221.328,69.794z M221.704,71.974l-0.104,0.759l-0.632-0.073
	l0.103-0.759L221.704,71.974z M218.248,67.904l0.638,0.015l0.001,0.796l-0.638-0.014L218.248,67.904z M218.21,69.754l0.639,0.013
	l-0.02,0.911l-0.639-0.01L218.21,69.754z M218.811,71.879l-0.022,0.769l-0.639-0.008l0.025-0.764L218.811,71.879z M215.188,68.208
	l0.639-0.051l0.083,0.791L215.273,69L215.188,68.208z M215.345,70.051l0.637-0.055l0.075,0.908l-0.635,0.055L215.345,70.051z
	 M215.528,72.166l0.639-0.059l0.055,0.762l-0.635,0.059L215.528,72.166z M212.177,68.817l0.629-0.12l0.167,0.781l-0.627,0.116
	L212.177,68.817z M212.525,70.632l0.629-0.119l0.17,0.894l-0.626,0.123L212.525,70.632z M212.931,72.717l0.625-0.129l0.137,0.755
	l-0.625,0.127L212.931,72.717z M213.297,74.657l0.626-0.122l0.172,0.897l-0.625,0.122L213.297,74.657z M209.271,69.718l0.613-0.184
	l0.246,0.757l-0.61,0.184L209.271,69.718z M209.81,71.487l0.608-0.187l0.265,0.875l-0.612,0.186L209.81,71.487z M210.43,73.517
	l0.609-0.19l0.214,0.734l-0.61,0.193L210.43,73.517z M210.994,75.411l0.612-0.187l0.265,0.873l-0.61,0.187L210.994,75.411z
	 M211.509,77.146l0.611-0.185l0.266,0.867l-0.611,0.189L211.509,77.146z M212.136,79.178l0.61-0.187l0.379,1.167l-0.61,0.19
	L212.136,79.178z M206.469,70.913l0.589-0.245l0.326,0.726l-0.587,0.249L206.469,70.913z M207.188,72.619l0.586-0.25l0.354,0.841
	l-0.588,0.249L207.188,72.619z M208.015,74.57l0.586-0.253l0.291,0.71l-0.586,0.254L208.015,74.57z M208.776,76.394l0.591-0.25
	l0.353,0.839l-0.586,0.25L208.776,76.394z M209.471,78.07l0.586-0.251l0.357,0.835l-0.589,0.25L209.471,78.07z M210.305,80.022
	l0.586-0.251l0.501,1.124l-0.587,0.252L210.305,80.022z M211.289,82.266l0.583-0.261c0.102,0.24,0.198,0.467,0.289,0.67
	l-0.581,0.264C211.489,82.734,211.394,82.508,211.289,82.266z M215.688,91.085l-0.513,0.383l-0.54-0.731l0.511-0.382L215.688,91.085
	z M214.423,89.379l-0.509,0.384l-0.449-0.624l0.508-0.383L214.423,89.379z M213.256,87.793l-0.517,0.378l-0.541-0.733l0.514-0.379
	L213.256,87.793z M210.669,83.543l-0.551,0.325c-0.112-0.195-0.229-0.409-0.357-0.642l0.551-0.32
	C210.44,83.137,210.56,83.351,210.669,83.543z M209.721,81.854l-0.56,0.313l-0.615-1.066l0.558-0.312L209.721,81.854z
	 M207.955,80.042l-0.443-0.797l0.56-0.31l0.44,0.792L207.955,80.042z M207.648,78.141l-0.558,0.31l-0.443-0.798l0.561-0.309
	L207.648,78.141z M206.618,76.28l-0.554,0.315l-0.364-0.676l0.558-0.314L206.618,76.28z M205.109,74.861l-0.437-0.8l0.559-0.308
	l0.439,0.799L205.109,74.861z M204.34,72.134l0.401,0.69l-0.562,0.306l-0.399-0.689L204.34,72.134z M211.615,85.572l0.488,0.631
	l-0.514,0.377l-0.489-0.63L211.615,85.572z M214.505,92.005l-0.42,0.48l-0.683-0.604l0.422-0.479L214.505,92.005z M212.913,90.598
	l-0.416,0.481l-0.57-0.514l0.418-0.481L212.913,90.598z M209.255,84.479l-0.515,0.378c-0.13-0.183-0.271-0.384-0.423-0.6
	l0.518-0.376C208.984,84.095,209.125,84.297,209.255,84.479z M208.134,82.895l-0.521,0.371l-0.724-0.996l0.521-0.368L208.134,82.895
	z M206.71,80.909l-0.52,0.368l-0.523-0.747l0.522-0.367L206.71,80.909z M205.686,79.417l-0.523,0.367l-0.521-0.746l0.522-0.368
	L205.686,79.417z M204.466,77.676l-0.518,0.369l-0.432-0.635l0.521-0.369L204.466,77.676z M203.343,76.057l-0.523,0.366
	l-0.521-0.751l0.525-0.363L203.343,76.057z M201.768,73.793l0.468,0.644l-0.523,0.362l-0.47-0.642L201.768,73.793z M206.86,83.959
	l-0.479,0.421l-0.823-0.913l0.48-0.421L206.86,83.959z M205.237,82.132l-0.481,0.421l-0.597-0.688l0.483-0.416L205.237,82.132z
	 M204.062,80.757l-0.48,0.422l-0.599-0.691l0.484-0.419L204.062,80.757z M202.67,79.153l-0.48,0.421l-0.495-0.582l0.481-0.426
	L202.67,79.153z M201.382,77.659l-0.482,0.418l-0.598-0.691l0.482-0.416L201.382,77.659z M199.579,75.574l0.533,0.59l-0.484,0.416
	l-0.534-0.592L199.579,75.574z M202.429,82.37l-0.435,0.468l-0.665-0.622l0.436-0.468L202.429,82.37z M200.876,80.919l-0.432,0.469
	l-0.554-0.53l0.433-0.469L200.876,80.919z M199.44,79.569l-0.438,0.466l-0.665-0.625l0.436-0.462L199.44,79.569z M197.43,77.683
	l0.589,0.531l-0.434,0.462l-0.597-0.532L197.43,77.683z M199.156,83.037l-0.379,0.516l-0.609-0.47l0.382-0.514L199.156,83.037z
	 M197.587,81.845l-0.384,0.511l-0.726-0.55l0.384-0.512L197.587,81.845z M195.39,80.181l0.645,0.465l-0.386,0.508l-0.646-0.469
	L195.39,80.181z M197.029,84.939l0.649,0.404l-0.324,0.55l-0.652-0.403L197.029,84.939z M195.992,84.322l-0.328,0.547l-0.782-0.474
	l0.332-0.546L195.992,84.322z M193.635,82.895l0.688,0.398l-0.33,0.544l-0.69-0.398L193.635,82.895z M195.806,87.337l0.69,0.335
	l-0.267,0.58l-0.689-0.332L195.806,87.337z M193.887,86.444l0.826,0.388l-0.271,0.576l-0.826-0.385L193.887,86.444z M195.563,90.161
	l-0.204,0.605l-0.72-0.258l0.201-0.606L195.563,90.161z M192.217,85.659l0.727,0.322l-0.271,0.577l-0.729-0.324L192.217,85.659z
	 M196.085,92.975l0.887,0.208l-0.143,0.621l-0.89-0.204L196.085,92.975z M192.84,89.211l0.864,0.298l-0.212,0.604l-0.86-0.3
	L192.84,89.211z M191.099,88.607l0.756,0.246l-0.209,0.602l-0.76-0.246L191.099,88.607z M192.093,92.043l0.889,0.207l-0.144,0.623
	l-0.889-0.208L192.093,92.043z M193.742,95.294l0.759,0.104l-0.072,0.635l-0.76-0.103L193.742,95.294z M190.298,91.623l0.777,0.164
	l-0.147,0.621l-0.778-0.164L190.298,91.623z M191.643,95.038l0.905,0.11l-0.081,0.635l-0.904-0.113L191.643,95.038z M192.402,98.564
	l-0.911-0.018l0.015-0.637l0.91,0.017L192.402,98.564z M189.811,94.81l0.792,0.081l-0.08,0.633l-0.797-0.083L189.811,94.81z
	 M194.16,103.221l0.755-0.137l0.126,0.625l-0.753,0.139L194.16,103.221z M192.535,100.627l0.053,0.636l-0.907,0.078l-0.054-0.637
	L192.535,100.627z M189.659,97.873l0.795-0.002l-0.014,0.637l-0.798,0L189.659,97.873z M189.785,100.86l0.791-0.086l0.055,0.636
	l-0.792,0.084L189.785,100.86z M190.269,103.973l0.779-0.164l0.12,0.622l-0.779,0.168L190.269,103.973z M191.085,107.045
	l0.757-0.248l0.185,0.61l-0.758,0.248L191.085,107.045z M192.221,109.99l0.726-0.326l0.245,0.587l-0.728,0.327L192.221,109.99z
	 M194.421,112.521l0.308,0.559l-0.688,0.399l-0.308-0.56L194.421,112.521z M179.115,103.692l-0.058-10.892
	c-0.006-0.632,0.3-1.146,0.681-1.148c0.379-0.002,0.691,0.509,0.694,1.141l0.061,10.892c0.002,0.632-0.304,1.144-0.684,1.146
	C179.428,104.832,179.117,104.322,179.115,103.692z"/>
<path fill="#FFFFFF" d="M13.86,83.012c-3.023,0.766-11.942,2.664-13.918,1.632c0.002-0.603,0.002-0.939,0.002-0.939
	c0-0.036-0.01-0.067-0.011-0.102l0.009,0.005c-0.014-0.06,0.011-0.434,0.059-1.868c0.025-0.764,0.435-0.87,1.143-1.091
	c0.3-0.092,0.904-0.429,0.774-0.688c-0.243-0.48-4.74-0.645-6.3-0.639c-1.535,0.006-2.471,0.004-3.283,0l0.003,0.001
	c-0.101-0.001-0.202-0.006-0.302-0.006c0,0-5.041-0.61-6.648-1.031c-1.248-0.326-2.562-0.687-3.934-1.051l0.167-1.214
	c-1.802-0.249-3.769-0.949-4.04-1.433c-0.257-0.504-0.54-2.57-0.844-6.144c-0.084-1.004-0.102-1.178-0.149-1.362
	c-0.242-0.919-1.184-1.985-3.04-1.985c-0.018,0-0.035,0-0.052,0l-10.225,0.11v-0.001l-10.824,0.116
	c-1.89,0.021-2.824,1.118-3.052,2.053c-0.043,0.182-0.057,0.358-0.121,1.38c-0.227,3.568-0.465,5.635-0.705,6.136
	c-0.266,0.495-2.217,1.237-4.016,1.527l0.189,1.18c-0.889,0.239-1.752,0.472-2.586,0.69c-2.003,0.524-8.281,1.031-8.281,1.031
	c-0.08,0-0.152,0.006-0.229,0.008c-0.353-0.001-0.739-0.002-1.179-0.003c-1.559-0.006-6.056,0.159-6.298,0.639
	c-0.132,0.259,0.474,0.596,0.772,0.688c0.709,0.221,1.119,0.327,1.144,1.091c0.048,1.434,0.044,1.861,0.036,2.262L-71.875,84
	c-0.002,0.072-0.007,0.143-0.007,0.215c0,0,0.006,0.211,0.019,0.596c-2.648,0.62-10.617-1.083-13.438-1.797
	c-1.416-0.358-2.406,0.344-2.406,1.031c0,1.327,2.319,1.977,4.812,2.491c3.496,0.724,9.527,1.158,11.128,1.263
	c0.258,8.003,0.911,27.064,1.446,32.594c0.439,4.537,1.034,7.717,4.713,8.844c9.278,2.834,43.04,2.834,58.418,0.084
	c4.418-0.789,5.01-4.283,5.585-8.076c1.177-7.768,1.46-25.394,1.528-33.419c0,0,7.477-0.452,11.53-1.29
	c2.492-0.514,4.812-1.164,4.812-2.491C16.264,83.357,15.274,82.655,13.86,83.012z M-49.093,76.046
	c0.5-1.022,0.738-3.393,0.977-7.125c0.024-0.383,0.043-0.689,0.058-0.877c0.069-0.042,0.233-0.104,0.534-0.107l10.223-0.11v0.001
	l10.825-0.116c0.312-0.01,0.464,0.054,0.534,0.094c0.02,0.186,0.043,0.485,0.075,0.859c0.313,3.693,0.601,6.049,1.114,7.083
	c-3.494-0.714-7.312-1.242-11.475-1.242C-40.951,74.507-45.23,75.185-49.093,76.046z"/>
</svg>
